<svg xmlns="http://www.w3.org/2000/svg" viewBox="0 0 470 1723"><defs><style>.cls-1{fill:#fffbdd;}.cls-18,.cls-2,.cls-22,.cls-37,.cls-4,.cls-43,.cls-47,.cls-48,.cls-50,.cls-51,.cls-52,.cls-55,.cls-58,.cls-59,.cls-64,.cls-65,.cls-7,.cls-9{fill:#7075a3;}.cls-2{opacity:0.2;}.cls-20,.cls-3,.cls-67,.cls-68{fill:#fff;}.cls-18,.cls-30,.cls-4,.cls-7{font-size:11px;}.cls-10,.cls-11,.cls-18,.cls-22,.cls-37,.cls-4,.cls-43,.cls-55,.cls-63,.cls-67,.cls-68,.cls-7{font-family:FuturaPT-Book, Futura PT;}.cls-19,.cls-4{letter-spacing:0.05em;}.cls-5{letter-spacing:0.08em;}.cls-6,.cls-7{letter-spacing:0.05em;}.cls-8{letter-spacing:0.08em;}.cls-9{opacity:0.4;}.cls-10,.cls-11,.cls-14,.cls-15{font-size:9px;}.cls-10,.cls-13,.cls-15{letter-spacing:0.05em;}.cls-11,.cls-14,.cls-68{letter-spacing:0.05em;}.cls-12{letter-spacing:0.04em;}.cls-14,.cls-15,.cls-30{font-family:FuturaPT-Light, Futura PT;}.cls-14,.cls-15,.cls-23,.cls-29,.cls-30{font-weight:300;}.cls-16{letter-spacing:0.03em;}.cls-17{letter-spacing:0.03em;}.cls-18{letter-spacing:0em;}.cls-20,.cls-21,.cls-24,.cls-25,.cls-26,.cls-29{stroke:#000;}.cls-20,.cls-24,.cls-25,.cls-26{stroke-linecap:round;stroke-linejoin:bevel;}.cls-21,.cls-24{fill:none;}.cls-21,.cls-29{stroke-miterlimit:10;}.cls-22{font-size:14.07px;letter-spacing:0.05em;}.cls-23{font-size:47.59px;letter-spacing:0.05em;}.cls-23,.cls-29{font-family:Calibri-Light, Calibri;}.cls-24{stroke-width:0.2px;opacity:0.3;}.cls-25{fill:#ceb36f;}.cls-26{fill:#e88a5b;}.cls-27{fill:#f4e9b8;}.cls-28{fill:#e8d980;}.cls-29{font-size:36.27px;fill:#b8ff48;stroke-width:0.2px;letter-spacing:0.05em;}.cls-30{letter-spacing:0.02em;}.cls-31{letter-spacing:0.02em;}.cls-32{letter-spacing:0.01em;}.cls-33{letter-spacing:0.05em;}.cls-34{opacity:0.6;}.cls-35{fill:#202020;}.cls-36{fill:#fa4848;}.cls-37,.cls-43,.cls-55,.cls-63{font-size:14px;}.cls-37{letter-spacing:0.01em;}.cls-38,.cls-39,.cls-43,.cls-47{letter-spacing:0.05em;}.cls-39,.cls-44,.cls-56{fill:#000;}.cls-40,.cls-44,.cls-45,.cls-55,.cls-58,.cls-63{letter-spacing:0.05em;}.cls-41{letter-spacing:0.04em;}.cls-42{letter-spacing:0.08em;}.cls-45{fill:#020202;}.cls-46,.cls-59{letter-spacing:0.03em;}.cls-48,.cls-54{letter-spacing:0.03em;}.cls-49,.cls-64{letter-spacing:0.07em;}.cls-51,.cls-66{letter-spacing:0.04em;}.cls-52,.cls-53{letter-spacing:0.03em;}.cls-57{letter-spacing:0.04em;}.cls-60,.cls-65{letter-spacing:0.04em;}.cls-61{letter-spacing:0.02em;}.cls-62{letter-spacing:0.01em;}.cls-67,.cls-68{font-size:18px;}.cls-67,.cls-70{letter-spacing:0.05em;}.cls-69{letter-spacing:0.03em;}</style></defs><title>Homepage</title><g id="Background"><rect class="cls-1" y="-162" width="470" height="332"/><rect class="cls-1" x="-0.5" y="383.5" width="470" height="2282"/></g><g id="Layer_1" data-name="Layer 1"><rect class="cls-2" x="135" y="197.64" width="198" height="145"/><rect class="cls-3" x="157" y="227.64" width="46" height="46" rx="12"/><rect class="cls-3" x="212" y="227.64" width="46" height="46" rx="12"/><rect class="cls-3" x="265" y="227.64" width="46" height="46" rx="12"/><rect class="cls-3" x="157" y="278.64" width="46" height="46" rx="12"/><rect class="cls-3" x="212" y="278.64" width="46" height="46" rx="12"/><rect class="cls-3" x="265" y="278.64" width="46" height="46" rx="12"/><text class="cls-4" transform="translate(162.87 239.45)">poult<tspan class="cls-5" x="24.07" y="0">r</tspan><tspan class="cls-6" x="28.21" y="0">y</tspan></text><text class="cls-7" transform="translate(227.91 239.45)">fish</text><text class="cls-4" transform="translate(276.15 239.45)">dai<tspan class="cls-8" x="15.51" y="0">r</tspan><tspan class="cls-6" x="19.66" y="0">y</tspan></text><rect class="cls-9" x="135" y="197.64" width="198" height="15"/><rect class="cls-2" x="180.74" y="1576" width="124.26" height="91"/><rect class="cls-9" x="180.74" y="1576" width="124.26" height="9.41"/><rect class="cls-3" x="262" y="498" width="46" height="46" rx="6.06"/><rect class="cls-3" x="209" y="498" width="46" height="46" rx="6.06"/><rect class="cls-3" x="154" y="498" width="46" height="46" rx="6.06"/><text class="cls-4" transform="translate(159.87 509.81)">poult<tspan class="cls-5" x="24.07" y="0">r</tspan><tspan class="cls-6" x="28.21" y="0">y</tspan></text><text class="cls-7" transform="translate(224.91 509.81)">fish</text><text class="cls-4" transform="translate(273.15 509.81)">dai<tspan class="cls-8" x="15.51" y="0">r</tspan><tspan class="cls-6" x="19.66" y="0">y</tspan></text><text class="cls-10" transform="translate(218.43 521)">salmon</text><text class="cls-11" transform="translate(277.47 521)">milk</text><text class="cls-11" transform="translate(271.76 530)">c<tspan class="cls-12" x="4.39" y="0">h</tspan><tspan class="cls-13" x="8.98" y="0">eese</tspan></text><rect class="cls-3" x="192" y="620" width="79" height="82" rx="8.06"/><rect class="cls-3" x="191" y="763" width="79" height="35" rx="8.06"/><rect class="cls-3" x="212" y="462.12" width="42" height="18.61" rx="8.06"/><text class="cls-7" transform="translate(212.6 636.81)">expiring <tspan x="7.99" y="13.2">soon!</tspan></text><text class="cls-14" transform="translate(222.95 665)">milk</text><text class="cls-14" transform="translate(221.97 677)">eggs</text><text class="cls-15" transform="translate(222.85 689)">flour</text><text class="cls-4" transform="translate(223.28 475.81)">add</text><text class="cls-4" transform="translate(208.35 775.75)">gene<tspan class="cls-16" x="23.74" y="0">r</tspan><tspan class="cls-6" x="27.31" y="0">ate</tspan><tspan class="cls-17"><tspan x="6.31" y="13.2">r</tspan><tspan class="cls-6" x="9.86" y="13.2">ecipe</tspan></tspan></text><rect class="cls-3" x="191" y="815" width="79" height="128" rx="8.06"/><text class="cls-18" transform="translate(201.08 835.75)">P<tspan class="cls-19" x="4.99" y="0">ANCAKES!</tspan></text><path class="cls-20" d="M256.23,791.34l5,21,3-10,12-1Z"/><line class="cls-21" x1="259.29" y1="789.46" x2="262.87" y2="785.87"/><line class="cls-21" x1="255.79" y1="788.18" x2="256.38" y2="783.15"/><line class="cls-21" x1="253.28" y1="789.93" x2="248.89" y2="787.4"/><line class="cls-21" x1="254.18" y1="792.24" x2="249.99" y2="795.09"/><rect class="cls-3" x="249" y="1564" width="101.03" height="44.76" rx="7.8"/><text class="cls-22" transform="translate(278.84 1590.53)">sign up</text><path class="cls-20" d="M332.42,1600.24l6.4,26.86q1.92-6.39,3.83-12.79L358,1613Z"/><line class="cls-21" x1="336.33" y1="1597.83" x2="340.91" y2="1593.25"/><line class="cls-21" x1="331.85" y1="1596.2" x2="332.61" y2="1589.77"/><line class="cls-21" x1="328.64" y1="1598.44" x2="323.03" y2="1595.2"/><line class="cls-21" x1="329.79" y1="1601.39" x2="324.44" y2="1605.04"/><path class="cls-20" d="M256.23,476.34l5,21,3-10,12-1Z"/><line class="cls-21" x1="259.29" y1="474.46" x2="262.87" y2="470.87"/><line class="cls-21" x1="255.79" y1="473.18" x2="256.38" y2="468.15"/><line class="cls-21" x1="253.28" y1="474.93" x2="248.89" y2="472.4"/><line class="cls-21" x1="254.18" y1="477.24" x2="249.99" y2="480.09"/><text class="cls-23" transform="translate(250.09 641.3) rotate(4.52)">!</text><line class="cls-20" x1="202" y1="840" x2="259" y2="840"/><polyline class="cls-24" points="205 852 209 846 215 852 221 846 226.5 851.5 232 846 238 852 244 846 250.5 852.5 256.5 846.5"/><polyline class="cls-24" points="205 860.5 209 866.5 215 860.5 221 866.5 226.5 861 232 866.5 238 860.5 244 866.5 250.5 860 256.5 866"/><polyline class="cls-24" points="205 878 209 872 215 878 221 872 226.5 877.5 232 872 238 878 244 872 250.5 878.5 256.5 872.5"/><path class="cls-20" d="M251.5,918.5c-.05,3.51-9.56,6.59-17,7-9.71.54-20.94-3.2-21-7-.05-3.6,9.95-7.36,18.5-7.5C241.18,910.85,251.55,914.82,251.5,918.5Z"/><ellipse class="cls-20" cx="232.5" cy="916.5" rx="27.5" ry="7.5"/><ellipse class="cls-25" cx="233.5" cy="914.5" rx="20" ry="5"/><ellipse class="cls-25" cx="232.5" cy="910.5" rx="20" ry="5"/><ellipse class="cls-25" cx="232.5" cy="907" rx="18" ry="4.5"/><path class="cls-20" d="M226.5,888.5a7,7,0,0,1,1,5c-.27,1.2-.84,1.72-1,3a6.38,6.38,0,0,0,1,4"/><path class="cls-20" d="M233.59,888.5a7,7,0,0,0-1,5c.27,1.2.84,1.72,1,3a6.38,6.38,0,0,1-1,4"/><path class="cls-20" d="M238.5,888.5a7,7,0,0,1,1,5c-.27,1.2-.84,1.72-1,3a6.38,6.38,0,0,0,1,4"/><rect class="cls-3" x="191" y="1052" width="79" height="112" rx="8.06"/><text class="cls-7" transform="translate(208.63 1072.75)">wasted :(</text><path class="cls-26" d="M212.39,1092.88l-.15.1c.18-.1.4,0,.59-.15a3,3,0,0,1,.36-.17.23.23,0,0,0,.17-.22,3,3,0,0,1,.45-1.28,2.21,2.21,0,0,1,.37-.43c.06-.06.14-.15.23-.09a.41.41,0,0,1,.2.29v0c0,.2,0,.31-.24.4a1.09,1.09,0,0,0-.57.75,1.26,1.26,0,0,0-.1.38c0,.08,0,.13.09.1a6.34,6.34,0,0,1,1.3-.11c.11,0,.2.1.31,0,.1.18.23,0,.33,0a2.76,2.76,0,0,1,1.48.14,4.38,4.38,0,0,1,1.81,1,7.79,7.79,0,0,1,.84.88,1.8,1.8,0,0,1,.28.53c.12.38.33.73.47,1.11a4.54,4.54,0,0,1,.29,1.08,1.42,1.42,0,0,0,.12.4,2.9,2.9,0,0,1,.21.75,1.28,1.28,0,0,0,.05.27s.05.09,0,.13a.56.56,0,0,0,.16.48,1.44,1.44,0,0,1,.22.66,3.93,3.93,0,0,0,.06.6c.09.36,0,.72,0,1.08a1.49,1.49,0,0,1-.09.59,13,13,0,0,1-.52,1.48,4.91,4.91,0,0,1-.47.91c-.1.15-.11.35-.22.5a.52.52,0,0,1-.12.16c-.18.14-.32.32-.49.47a3.56,3.56,0,0,1-.77.48c-.17.08-.35.18-.52.24-.46.16-.88.41-1.34.58s-.67.23-1,.33a4,4,0,0,1-1.05.17c-.55,0-1.09-.11-1.64-.06a2.45,2.45,0,0,1-1-.21,1.13,1.13,0,0,0-.31-.06,1.23,1.23,0,0,1-.69-.32.77.77,0,0,0-.31-.19,2.8,2.8,0,0,1-.67-.47c-.21-.16-.39-.37-.62-.52a1.57,1.57,0,0,1-.37-.47l-.26-.4a1,1,0,0,1-.17-.42s0-.1,0-.12c-.24-.15-.33-.44-.56-.59a.59.59,0,0,1-.17-.18c-.14-.25-.3-.49-.45-.73a3.59,3.59,0,0,1-.24-.53,10.2,10.2,0,0,1-.62-2.77,5.9,5.9,0,0,1,.13-1.25,6.94,6.94,0,0,1,.28-1.11,3.83,3.83,0,0,1,.16-.58,1.63,1.63,0,0,1,.33-.49.39.39,0,0,0,.08-.1,4,4,0,0,1,.86-1.11,1.51,1.51,0,0,1,.51-.39.59.59,0,0,0,.27-.25.72.72,0,0,1,.39-.3,4.32,4.32,0,0,0,.67-.36,2.14,2.14,0,0,0,.43-.26.41.41,0,0,1,.31,0s.08,0,.09,0,.31-.12.43-.25A.66.66,0,0,1,212.39,1092.88Z"/><path class="cls-26" d="M227.6,1084.62l-.16.1c.19-.1.43,0,.63-.15a1.93,1.93,0,0,1,.38-.19.26.26,0,0,0,.19-.24,3.27,3.27,0,0,1,.49-1.38,2.21,2.21,0,0,1,.4-.46c.06-.06.15-.16.24-.1a.46.46,0,0,1,.22.32h0c0,.23,0,.34-.26.44a1.21,1.21,0,0,0-.62.8,2,2,0,0,0-.11.42c0,.08,0,.13.1.1a7.36,7.36,0,0,1,1.4-.12c.12,0,.21.11.34,0,.11.2.25,0,.35,0a3,3,0,0,1,1.6.15,4.56,4.56,0,0,1,1.94,1.12,8.17,8.17,0,0,1,.91,1,2,2,0,0,1,.3.56c.13.42.36.8.51,1.2a5.32,5.32,0,0,1,.31,1.17,1.64,1.64,0,0,0,.13.43,2.78,2.78,0,0,1,.22.81,1.4,1.4,0,0,0,.06.28.28.28,0,0,1,0,.15.6.6,0,0,0,.17.51,1.54,1.54,0,0,1,.24.72,4.21,4.21,0,0,0,.06.63,11.63,11.63,0,0,1,0,1.17,1.41,1.41,0,0,1-.09.64,13,13,0,0,1-.56,1.59,5.32,5.32,0,0,1-.5,1c-.11.17-.12.38-.24.54s-.08.13-.13.18-.35.34-.53.5a3.67,3.67,0,0,1-.82.52c-.19.08-.38.18-.57.25-.5.17-.95.45-1.44.62s-.72.26-1.08.37a4.37,4.37,0,0,1-1.14.17c-.59,0-1.17-.11-1.76-.06a2.47,2.47,0,0,1-1.07-.22,1,1,0,0,0-.34-.07,1.31,1.31,0,0,1-.74-.35,1,1,0,0,0-.33-.2,3,3,0,0,1-.72-.5c-.23-.18-.42-.4-.67-.57a1.38,1.38,0,0,1-.39-.5c-.09-.15-.19-.28-.29-.43a1,1,0,0,1-.18-.45.22.22,0,0,0-.06-.14c-.25-.16-.35-.46-.6-.62a.58.58,0,0,1-.18-.2c-.15-.27-.32-.53-.49-.79a3.18,3.18,0,0,1-.25-.57,10.48,10.48,0,0,1-.67-3,6.8,6.8,0,0,1,.14-1.35,7.26,7.26,0,0,1,.3-1.2,3.58,3.58,0,0,1,.17-.62,1.72,1.72,0,0,1,.36-.53.39.39,0,0,0,.08-.1,4.55,4.55,0,0,1,.93-1.2,1.71,1.71,0,0,1,.54-.42.59.59,0,0,0,.3-.26.75.75,0,0,1,.42-.33,4.53,4.53,0,0,0,.72-.39,3.77,3.77,0,0,0,.47-.27c.08-.08.22-.06.33,0l.09,0c.12-.16.34-.13.47-.27A.76.76,0,0,1,227.6,1084.62Z"/><path class="cls-26" d="M225.89,1106.38l-.15.1c.18-.1.4,0,.59-.15a3,3,0,0,1,.36-.17.23.23,0,0,0,.17-.22,3,3,0,0,1,.45-1.28,2.21,2.21,0,0,1,.37-.43c.06-.06.14-.15.23-.09a.41.41,0,0,1,.2.29v0c0,.2,0,.31-.24.4a1.09,1.09,0,0,0-.57.75,1.26,1.26,0,0,0-.1.38c0,.08,0,.13.09.1a6.34,6.34,0,0,1,1.3-.11c.11,0,.2.1.31,0,.1.18.23,0,.33,0a2.76,2.76,0,0,1,1.48.14,4.38,4.38,0,0,1,1.81,1,7.79,7.79,0,0,1,.84.88,1.8,1.8,0,0,1,.28.53c.12.38.33.73.47,1.11a4.54,4.54,0,0,1,.29,1.08,1.42,1.42,0,0,0,.12.4,2.9,2.9,0,0,1,.21.75,1.28,1.28,0,0,0,.05.27s.05.09,0,.13a.56.56,0,0,0,.16.48,1.44,1.44,0,0,1,.22.66,3.93,3.93,0,0,0,.06.6c.09.36,0,.72,0,1.08a1.49,1.49,0,0,1-.09.59,13,13,0,0,1-.52,1.48,4.91,4.91,0,0,1-.47.91c-.1.15-.11.35-.22.5a.52.52,0,0,1-.12.16c-.18.14-.32.32-.49.47a3.56,3.56,0,0,1-.77.48c-.17.08-.35.18-.52.24-.46.16-.88.41-1.34.58s-.67.23-1,.33a4,4,0,0,1-1.05.17c-.55,0-1.09-.11-1.64-.06a2.45,2.45,0,0,1-1-.21,1.13,1.13,0,0,0-.31-.06,1.23,1.23,0,0,1-.69-.32.77.77,0,0,0-.31-.19,2.8,2.8,0,0,1-.67-.47c-.21-.16-.39-.37-.62-.52a1.57,1.57,0,0,1-.37-.47l-.26-.4a1,1,0,0,1-.17-.42s0-.1,0-.12c-.24-.15-.33-.44-.56-.59a.59.59,0,0,1-.17-.18c-.14-.25-.3-.49-.45-.73a3.59,3.59,0,0,1-.24-.53,10.2,10.2,0,0,1-.62-2.77,5.9,5.9,0,0,1,.13-1.25,6.94,6.94,0,0,1,.28-1.11,3.83,3.83,0,0,1,.16-.58,1.63,1.63,0,0,1,.33-.49.39.39,0,0,0,.08-.1,4,4,0,0,1,.86-1.11,1.51,1.51,0,0,1,.51-.39.59.59,0,0,0,.27-.25.72.72,0,0,1,.39-.3,4.32,4.32,0,0,0,.67-.36,2.14,2.14,0,0,0,.43-.26.41.41,0,0,1,.31,0s.08,0,.09,0,.31-.12.43-.25A.66.66,0,0,1,225.89,1106.38Z"/><path class="cls-26" d="M240.89,1099.38l-.15.1c.18-.1.4,0,.59-.15a3,3,0,0,1,.36-.17.23.23,0,0,0,.17-.22,3,3,0,0,1,.45-1.28,2.21,2.21,0,0,1,.37-.43c.06-.06.14-.15.23-.09a.41.41,0,0,1,.2.29v0c0,.2,0,.31-.24.4a1.09,1.09,0,0,0-.57.75,1.26,1.26,0,0,0-.1.38c0,.08,0,.13.09.1a6.34,6.34,0,0,1,1.3-.11c.11,0,.2.1.31,0,.1.18.23,0,.33,0a2.76,2.76,0,0,1,1.48.14,4.38,4.38,0,0,1,1.81,1,7.79,7.79,0,0,1,.84.88,1.8,1.8,0,0,1,.28.53c.12.38.33.73.47,1.11a4.54,4.54,0,0,1,.29,1.08,1.42,1.42,0,0,0,.12.4,2.9,2.9,0,0,1,.21.75,1.28,1.28,0,0,0,.05.27s.05.09,0,.13a.56.56,0,0,0,.16.48,1.44,1.44,0,0,1,.22.66,3.93,3.93,0,0,0,.06.6c.09.36,0,.72,0,1.08a1.49,1.49,0,0,1-.09.59,13,13,0,0,1-.52,1.48,4.91,4.91,0,0,1-.47.91c-.1.15-.11.35-.22.5a.52.52,0,0,1-.12.16c-.18.14-.32.32-.49.47a3.56,3.56,0,0,1-.77.48c-.17.08-.35.18-.52.24-.46.16-.88.41-1.34.58s-.67.23-1,.33a4,4,0,0,1-1.05.17c-.55,0-1.09-.11-1.64-.06a2.45,2.45,0,0,1-1-.21,1.13,1.13,0,0,0-.31-.06,1.23,1.23,0,0,1-.69-.32.77.77,0,0,0-.31-.19,2.8,2.8,0,0,1-.67-.47c-.21-.16-.39-.37-.62-.52a1.57,1.57,0,0,1-.37-.47l-.26-.4a1,1,0,0,1-.17-.42s0-.1,0-.12c-.24-.15-.33-.44-.56-.59a.59.59,0,0,1-.17-.18c-.14-.25-.3-.49-.45-.73a3.59,3.59,0,0,1-.24-.53,10.2,10.2,0,0,1-.62-2.77,5.9,5.9,0,0,1,.13-1.25,6.94,6.94,0,0,1,.28-1.11,3.83,3.83,0,0,1,.16-.58,1.63,1.63,0,0,1,.33-.49.39.39,0,0,0,.08-.1,4,4,0,0,1,.86-1.11,1.51,1.51,0,0,1,.51-.39.59.59,0,0,0,.27-.25.72.72,0,0,1,.39-.3,4.32,4.32,0,0,0,.67-.36,2.14,2.14,0,0,0,.43-.26.41.41,0,0,1,.31,0s.08,0,.09,0,.31-.12.43-.25A.66.66,0,0,1,240.89,1099.38Z"/><path class="cls-26" d="M221.89,1128.38l-.15.1c.18-.1.4,0,.59-.15a3,3,0,0,1,.36-.17.23.23,0,0,0,.17-.22,3,3,0,0,1,.45-1.28,2.21,2.21,0,0,1,.37-.43c.06-.06.14-.15.23-.09a.41.41,0,0,1,.2.29v0c0,.2,0,.31-.24.4a1.09,1.09,0,0,0-.57.75,1.26,1.26,0,0,0-.1.38c0,.08,0,.13.09.1a6.34,6.34,0,0,1,1.3-.11c.11,0,.2.1.31,0,.1.18.23,0,.33,0a2.76,2.76,0,0,1,1.48.14,4.38,4.38,0,0,1,1.81,1,7.79,7.79,0,0,1,.84.88,1.8,1.8,0,0,1,.28.53c.12.38.33.73.47,1.11a4.54,4.54,0,0,1,.29,1.08,1.42,1.42,0,0,0,.12.4,2.9,2.9,0,0,1,.21.75,1.28,1.28,0,0,0,.05.27s.05.09,0,.13a.56.56,0,0,0,.16.48,1.44,1.44,0,0,1,.22.66,3.93,3.93,0,0,0,.06.6c.09.36,0,.72,0,1.08a1.49,1.49,0,0,1-.09.59,13,13,0,0,1-.52,1.48,4.91,4.91,0,0,1-.47.91c-.1.15-.11.35-.22.5a.52.52,0,0,1-.12.16c-.18.14-.32.32-.49.47a3.56,3.56,0,0,1-.77.48c-.17.08-.35.18-.52.24-.46.16-.88.41-1.34.58s-.67.23-1,.33a4,4,0,0,1-1.05.17c-.55,0-1.09-.11-1.64-.06a2.45,2.45,0,0,1-1-.21,1.13,1.13,0,0,0-.31-.06,1.23,1.23,0,0,1-.69-.32.77.77,0,0,0-.31-.19,2.8,2.8,0,0,1-.67-.47c-.21-.16-.39-.37-.62-.52a1.57,1.57,0,0,1-.37-.47l-.26-.4a1,1,0,0,1-.17-.42s0-.1,0-.12c-.24-.15-.33-.44-.56-.59a.59.59,0,0,1-.17-.18c-.14-.25-.3-.49-.45-.73a3.59,3.59,0,0,1-.24-.53,10.2,10.2,0,0,1-.62-2.77,5.9,5.9,0,0,1,.13-1.25,6.94,6.94,0,0,1,.28-1.11,3.83,3.83,0,0,1,.16-.58,1.63,1.63,0,0,1,.33-.49.39.39,0,0,0,.08-.1,4,4,0,0,1,.86-1.11,1.51,1.51,0,0,1,.51-.39.59.59,0,0,0,.27-.25.72.72,0,0,1,.39-.3,4.32,4.32,0,0,0,.67-.36,2.14,2.14,0,0,0,.43-.26.41.41,0,0,1,.31,0s.08,0,.09,0,.31-.12.43-.25A.66.66,0,0,1,221.89,1128.38Z"/><path class="cls-26" d="M236.89,1121.38l-.15.1c.18-.1.4,0,.59-.15a3,3,0,0,1,.36-.17.23.23,0,0,0,.17-.22,3,3,0,0,1,.45-1.28,2.21,2.21,0,0,1,.37-.43c.06-.06.14-.15.23-.09a.41.41,0,0,1,.2.29v0c0,.2,0,.31-.24.4a1.09,1.09,0,0,0-.57.75,1.26,1.26,0,0,0-.1.38c0,.08,0,.13.09.1a6.34,6.34,0,0,1,1.3-.11c.11,0,.2.1.31,0,.1.18.23,0,.33,0a2.76,2.76,0,0,1,1.48.14,4.38,4.38,0,0,1,1.81,1,7.79,7.79,0,0,1,.84.88,1.8,1.8,0,0,1,.28.53c.12.38.33.73.47,1.11a4.54,4.54,0,0,1,.29,1.08,1.42,1.42,0,0,0,.12.4,2.9,2.9,0,0,1,.21.75,1.28,1.28,0,0,0,.05.27s.05.09,0,.13a.56.56,0,0,0,.16.48,1.44,1.44,0,0,1,.22.66,3.93,3.93,0,0,0,.06.6c.09.36,0,.72,0,1.08a1.49,1.49,0,0,1-.09.59,13,13,0,0,1-.52,1.48,4.91,4.91,0,0,1-.47.91c-.1.15-.11.35-.22.5a.52.52,0,0,1-.12.16c-.18.14-.32.32-.49.47a3.56,3.56,0,0,1-.77.48c-.17.08-.35.18-.52.24-.46.16-.88.41-1.34.58s-.67.23-1,.33a4,4,0,0,1-1.05.17c-.55,0-1.09-.11-1.64-.06a2.45,2.45,0,0,1-1-.21,1.13,1.13,0,0,0-.31-.06,1.23,1.23,0,0,1-.69-.32.77.77,0,0,0-.31-.19,2.8,2.8,0,0,1-.67-.47c-.21-.16-.39-.37-.62-.52a1.57,1.57,0,0,1-.37-.47l-.26-.4a1,1,0,0,1-.17-.42s0-.1,0-.12c-.24-.15-.33-.44-.56-.59a.59.59,0,0,1-.17-.18c-.14-.25-.3-.49-.45-.73a3.59,3.59,0,0,1-.24-.53,10.2,10.2,0,0,1-.62-2.77,5.9,5.9,0,0,1,.13-1.25,6.94,6.94,0,0,1,.28-1.11,3.83,3.83,0,0,1,.16-.58,1.63,1.63,0,0,1,.33-.49.39.39,0,0,0,.08-.1,4,4,0,0,1,.86-1.11,1.51,1.51,0,0,1,.51-.39.59.59,0,0,0,.27-.25.72.72,0,0,1,.39-.3,4.32,4.32,0,0,0,.67-.36,2.14,2.14,0,0,0,.43-.26.41.41,0,0,1,.31,0s.08,0,.09,0,.31-.12.43-.25A.66.66,0,0,1,236.89,1121.38Z"/><polyline class="cls-27" points="124.58 1301.27 124.58 1304.27 150.59 1304.27 150.59 1301.27"/><ellipse class="cls-27" cx="137.59" cy="1304.27" rx="13" ry="3"/><ellipse class="cls-28" cx="137.59" cy="1301.27" rx="13" ry="3"/><polyline class="cls-27" points="180.59 1301.27 180.59 1304.27 206.59 1304.27 206.59 1301.27"/><ellipse class="cls-27" cx="193.59" cy="1304.27" rx="13" ry="3"/><ellipse class="cls-28" cx="193.59" cy="1301.27" rx="13" ry="3"/><polyline class="cls-27" points="153.59 1288.27 153.59 1291.27 179.59 1291.27 179.59 1288.27"/><ellipse class="cls-27" cx="166.59" cy="1291.27" rx="13" ry="3"/><ellipse class="cls-28" cx="166.59" cy="1288.27" rx="13" ry="3"/><polyline class="cls-27" points="131.09 1307.77 131.09 1310.77 157.09 1310.77 157.09 1307.77"/><ellipse class="cls-27" cx="144.09" cy="1310.77" rx="13" ry="3"/><ellipse class="cls-28" cx="144.09" cy="1307.77" rx="13" ry="3"/><polyline class="cls-27" points="158.09 1307.77 158.09 1310.77 184.09 1310.77 184.09 1307.77"/><ellipse class="cls-27" cx="171.09" cy="1310.77" rx="13" ry="3"/><ellipse class="cls-28" cx="171.09" cy="1307.77" rx="13" ry="3"/><polyline class="cls-27" points="187.09 1307.77 187.09 1310.77 213.09 1310.77 213.09 1307.77"/><ellipse class="cls-27" cx="200.09" cy="1310.77" rx="13" ry="3"/><ellipse class="cls-28" cx="200.09" cy="1307.77" rx="13" ry="3"/><ellipse class="cls-27" cx="186.09" cy="1304.77" rx="13" ry="3"/><polyline class="cls-27" points="151.59 1301.27 151.59 1304.27 177.59 1304.27 177.59 1301.27"/><ellipse class="cls-27" cx="164.59" cy="1304.27" rx="13" ry="3"/><ellipse class="cls-28" cx="164.59" cy="1301.27" rx="13" ry="3"/><polyline class="cls-27" points="139.59 1295.27 139.59 1298.27 165.59 1298.27 165.59 1295.27"/><ellipse class="cls-27" cx="152.59" cy="1298.27" rx="13" ry="3"/><ellipse class="cls-28" cx="152.59" cy="1295.27" rx="13" ry="3"/><polyline class="cls-27" points="166.59 1295.27 166.59 1298.27 192.59 1298.27 192.59 1295.27"/><ellipse class="cls-27" cx="179.59" cy="1298.27" rx="13" ry="3"/><ellipse class="cls-28" cx="179.59" cy="1295.27" rx="13" ry="3"/><polyline class="cls-27" points="146.09 1301.77 146.09 1304.77 172.09 1304.77 172.09 1301.77"/><ellipse class="cls-27" cx="159.09" cy="1304.77" rx="13" ry="3"/><ellipse class="cls-28" cx="159.09" cy="1301.77" rx="13" ry="3"/><polyline class="cls-27" points="173.09 1301.77 173.09 1304.77 199.09 1304.77 199.09 1301.77"/><ellipse class="cls-28" cx="186.09" cy="1301.77" rx="13" ry="3"/><polyline class="cls-27" points="160.09 1294.77 160.09 1297.77 186.09 1297.77 186.09 1294.77"/><ellipse class="cls-27" cx="173.09" cy="1297.77" rx="13" ry="3"/><ellipse class="cls-28" cx="173.09" cy="1294.77" rx="13" ry="3"/><text class="cls-29" transform="translate(159.99 1296.82)">$</text><text class="cls-30" transform="translate(251.77 1312.83)">F<tspan class="cls-6" x="4.67" y="0">OOD </tspan><tspan class="cls-31" x="33.84" y="0">WA</tspan><tspan class="cls-32" x="51.52" y="0">S</tspan><tspan class="cls-33" x="57.28" y="0">TE</tspan></text><g class="cls-34"><polygon class="cls-35" points="284.76 1260.04 284.76 1274.97 284.76 1275.98 272.03 1275.98 286.5 1301.04 300.97 1275.98 288.25 1275.98 288.25 1274.97 288.25 1260.04 284.76 1260.04"/></g><g class="cls-34"><polygon class="cls-36" points="284.91 1260.04 284.91 1277.34 284.91 1278.26 273.35 1278.26 286.5 1301.04 299.65 1278.26 288.09 1278.26 288.09 1277.34 288.09 1260.04 284.91 1260.04"/></g></g><g id="text"><text class="cls-37" transform="translate(130.49 135.15)">F<tspan class="cls-38" x="6.19" y="0">ood span is </tspan><tspan class="cls-39" x="80.48" y="0">your</tspan><tspan class="cls-40" x="107.73" y="0" xml:space="preserve"> pe</tspan><tspan class="cls-41" x="127.19" y="0">r</tspan><tspan class="cls-38" x="131.88" y="0">sonal food</tspan><tspan class="cls-38"><tspan x="33.68" y="16.8">invento</tspan><tspan class="cls-42" x="77.66" y="16.8">r</tspan><tspan class="cls-40" x="82.93" y="16.8">y application</tspan></tspan></text><text class="cls-43" transform="translate(189.31 408.98)">to <tspan class="cls-44" x="15.69" y="0">seamlessly</tspan><tspan class="cls-40" x="80.16" y="0">:</tspan><tspan class="cls-45"><tspan x="-18.63" y="33.6">t</tspan><tspan class="cls-46" x="-14.93" y="33.6">r</tspan><tspan x="-10.38" y="33.6">ack</tspan><tspan class="cls-47" x="11.12" y="33.6" xml:space="preserve"> your g</tspan><tspan class="cls-48" x="54.35" y="33.6">r</tspan><tspan class="cls-47" x="58.86" y="33.6">oceries</tspan></tspan><tspan class="cls-44"><tspan x="-36.41" y="168">noti</tspan><tspan class="cls-49" x="-13.79" y="168">f</tspan><tspan x="-9.45" y="168">y you</tspan><tspan class="cls-50" x="24.05" y="168" xml:space="preserve"> w</tspan><tspan class="cls-51" x="38.26" y="168">h</tspan><tspan class="cls-47" x="45.4" y="168">en g</tspan><tspan class="cls-52" x="72.14" y="168">r</tspan><tspan class="cls-50" x="76.65" y="168">oceries</tspan></tspan><tspan class="cls-40"><tspan x="-20.41" y="184.8">a</tspan><tspan class="cls-53" x="-12.35" y="184.8">r</tspan><tspan x="-7.84" y="184.8">e about to epxpi</tspan><tspan class="cls-54" x="92.52" y="184.8">r</tspan><tspan class="cls-38" x="97.03" y="184.8">e</tspan></tspan><tspan class="cls-44"><tspan x="-46.97" y="319.2">suggest </tspan><tspan class="cls-53" x="2.73" y="319.2">r</tspan><tspan x="7.24" y="319.2">ecipes</tspan><tspan class="cls-47" x="46.24" y="319.2" xml:space="preserve"> f</tspan><tspan class="cls-52" x="54.26" y="319.2">r</tspan><tspan class="cls-50" x="58.77" y="319.2">om expiring</tspan></tspan><tspan class="cls-40"><tspan x="13.83" y="336">g</tspan><tspan class="cls-53" x="21.9" y="336">r</tspan><tspan class="cls-38" x="26.4" y="336">oceries</tspan></tspan></text><text class="cls-55" transform="translate(156.86 978.98)">and <tspan class="cls-56" x="27.37" y="0">suggest quanties for</tspan><tspan class="cls-39"><tspan x="-6.15" y="16.8">your next s</tspan><tspan class="cls-57" x="60.11" y="16.8">h</tspan><tspan x="67.18" y="16.8">op</tspan><tspan class="cls-58" x="83.28" y="16.8" xml:space="preserve"> by t</tspan><tspan class="cls-59" x="110.11" y="16.8">r</tspan><tspan class="cls-58" x="114.66" y="16.8">acking</tspan></tspan><tspan class="cls-38"><tspan x="-13.88" y="33.6">your expi</tspan><tspan class="cls-54" x="43.49" y="33.6">r</tspan><tspan x="48" y="33.6">ed items you </tspan><tspan class="cls-60" x="128.44" y="33.6">d</tspan><tspan x="136.36" y="33.6">id</tspan><tspan class="cls-60" x="148.04" y="33.6">n</tspan><tspan class="cls-61" x="155.18" y="33.6">’</tspan><tspan class="cls-40" x="159.15" y="33.6">t</tspan><tspan x="64.34" y="50.4">use</tspan></tspan></text><text class="cls-55" transform="translate(194.96 1194.98)">all made to <tspan class="cls-39"><tspan x="-38.05" y="16.8">lower food wastage</tspan><tspan class="cls-58" x="83.44" y="16.8" xml:space="preserve"> and</tspan></tspan><tspan class="cls-56"><tspan x="-14.4" y="33.6">save you mone</tspan><tspan class="cls-62" x="76.73" y="33.6">y</tspan><tspan class="cls-38" x="83.26" y="33.6">.</tspan></tspan></text><text class="cls-63" transform="translate(114.43 1445.98)">sign up <tspan class="cls-50" x="47.79" y="0">with t</tspan><tspan class="cls-51" x="80.29" y="0">h</tspan><tspan class="cls-47" x="87.43" y="0">e bu</tspan><tspan class="cls-64" x="114.11" y="0">t</tspan><tspan class="cls-47" x="118.09" y="0">ton on t</tspan><tspan class="cls-65" x="164.03" y="0">h</tspan><tspan class="cls-50" x="171.17" y="0">e top right</tspan><tspan x="63.03" y="33.6">confirm you email</tspan><tspan x="22.1" y="50.4">(</tspan><tspan class="cls-50" x="26.91" y="50.4">so we know you aint no </tspan><tspan class="cls-52" x="174.57" y="50.4">r</tspan><tspan class="cls-50" x="179.08" y="50.4">obot</tspan><tspan x="206.91" y="50.4">)</tspan><tspan class="cls-38"><tspan x="84.87" y="84">t</tspan><tspan class="cls-66" x="88.57" y="84">h</tspan><tspan x="95.71" y="84">en log in</tspan></tspan></text></g><g id="LAbels"><rect class="cls-50" x="131" y="61" width="198" height="43"/><text class="cls-67" transform="translate(154.51 89.47)">what is fo:od:span?</text><rect class="cls-50" x="131" y="1371" width="198" height="43"/><text class="cls-68" transform="translate(192.8 1397.47)">inte<tspan class="cls-69" x="28.31" y="0">r</tspan><tspan class="cls-70" x="34.11" y="0">ested?</tspan></text></g></svg>